<svg id="Calque_1" xmlns="http://www.w3.org/2000/svg" version="1.1" viewBox="0 0 1920 1080"> <defs> <style> .st0 { fill: #fff; font-family: AustralianSunset, 'Australian Sunset'; font-size: 77.9px; } .st1 { fill: #db0982; } </style> </defs> <g> <path class="st1" d="M436.8,209.7c-174.7,69.3-235,264.5-170,407.8,63.9,140.8,239.2,232.1,415.8,148.8-60.3,89.6-206.4,164.1-359.3,122.4-174.4-47.5-271.4-206.2-255.8-366.5,18.7-191.7,182.4-324.3,369.3-312.4Z"/> <path d="M480.6,754c-21.6-.8-42.7-5-59.7-19.9-14.9-13-20-31-21.5-50.1-2.2-27,2.2-53,11.1-78.5,3.2-9,6.4-18.1,9.9-28-4.5-.3-8.1-.5-11.6-.9-23.3-2.2-40-16.2-42.9-36.5-2.3-16.6-.6-32.9,8.5-47.2,8.2-12.9,16.9-25.7,27.1-36.9,24.3-26.6,50.3-51.4,79.4-72.7,11.8-8.6,24.1-17,39.3-18.3,5.1-.4,10.7,0,15.6,1.8,9.5,3.3,14.1,11.5,12.1,21.4-1.3,6.4-3.8,12.7-6.3,18.8-15.6,36.8-28.7,74.5-38.8,113.1-.5,1.8-.7,3.7-1.3,6.6,9.7-1.1,18.1-3.8,26.4-7,31.9-12.2,57.5-33.1,79.8-58.4,12.2-13.8,22.4-29,28.9-46.3,5.6-14.8,8.5-29.9,5.5-45.9-3.7-19.9-15.6-31.9-34.9-36.5-19.4-4.6-39.2-3.4-58.6-.3-38.4,6.1-74.8,18.4-108.8,37.7-43.9,24.9-83,55.5-114.4,95.2-6.8,8.6-12.1,18.2-18.1,27.5-2,3.1-3.3,6.8-8,6.4-4.3-.4-6-3.7-7.4-7.2-6.5-17.3-7.1-35-3.1-53,5.7-25.4,18.8-46.9,35.8-66,52.9-59.6,118.1-96.1,198.1-104.9,27.4-3,54.5-1.5,81.3,4.7,16.4,3.8,31.4,10.8,45.4,20.1,20.8,13.8,33,33.4,37.6,57.7,7,37.1.3,72.3-16.1,105.6-24.2,49-61.3,85.6-109.1,111.8-23.3,12.7-47.7,22-73.9,26.5-5.2.9-7.4,3.3-8.4,8.2-3,15.7-6.8,31.2-9.1,46.9-3.5,23.8-4,47.8.9,71.5,2.2,11,6,21.7,9.1,32.8ZM478.9,437.2c-3.4,1.7-4.7,2.1-5.7,2.8-1.9,1.3-3.9,2.6-5.6,4.1-17.5,15.2-32.2,32.6-43.7,52.8-2,3.4-3.7,7.2-4.7,11-1,3.8-1.6,7.9-1.4,11.8.5,8.1,6,12.1,13.8,9.8,10.5-3.1,19-7.9,22.8-19.8,6.6-20.9,14.6-41.4,22-62,1-2.7,1.4-5.6,2.7-10.4Z"/> <path d="M754.1,592.2c-2,2.5-3.7,5.4-6,7.6-10.7,10.3-23.5,16.2-38.5,16.4-23.5.3-38.5-13.5-39.6-36.9-.4-8.9.1-18,1.4-26.8,4.2-28.7,11.1-56.7,20.5-84.2,1.5-4.4,3.3-8.7,5.6-12.7,6.6-11.5,17.5-16.1,30.5-13.4,10.6,2.2,16.8,8,17.2,19,.4,9.8-.2,20.1-2.7,29.6-5.3,20.6-12.1,40.7-18.3,61.1-1.9,6.4-3.8,12.7-5.3,19.2-1.1,4.8-.2,9.6,4.1,12.4,4.6,3,9.6,1.3,12.8-2.2,6.3-6.8,12.5-13.9,17.3-21.7,14-22.8,23.3-47.8,32.4-72.8,5-13.8,9.7-27.6,15.4-41.1,9.9-23.3,20.9-28.9,45.7-23.4,5.7,1.3,11.4,3.9,16.3,7.1,8.7,5.8,9.7,13.8,3.8,22.4-4,5.8-8.2,11.3-12.1,17.1-25.4,38.8-42,81.4-53.1,126.3-6.7,27-13.4,54-20.2,81.5,8.2-1.4,10.9,4.3,12.3,11.5.8,3.9,1.7,7.9,3.3,11.4,3.8,8.2,11.4,10.9,19,6.3,4.4-2.7,9-6.5,11.2-10.9,6.1-12.5,12.5-25.2,16-38.5,6.1-23.4,10.1-47.4,14.8-71.2,6.5-32.9,11.5-66.2,24.1-97.6,5.2-12.9,11.2-25.6,17.5-38,2.8-5.5,7-10.5,11.2-15.2,4.8-5.4,11.3-8.2,18.6-8.6,13.9-.9,21.2,7.6,18.1,21.2-.4,1.9-1,3.9-1.7,5.8-19.8,54.9-32.8,111.5-43.9,168.6-4.9,25.1-11.2,50-23.2,72.9-9,17.1-20.2,32.2-37.9,41.2-14,7.1-28.6,10.6-44.4,7.4-16.6-3.3-28.7-11.9-34.9-27.9-.5-1.2-1.3-2.3-2.2-3.9-3.4,4-6.6,7.6-9.8,11.3-14.5,17-33.2,25.3-55.3,25.5-8.9.1-18.1-.4-26.6-2.8-30.1-8.3-44.4-38.8-32-69.2,8-19.5,23.2-32.2,42.5-39.9,14.4-5.7,29.5-7.9,44.9-8.6q22.5-.9,29.7-22.8c1.2-3.7,2.4-7.4,3.6-11.1-.7-.5-1.4-1-2.1-1.5ZM737.4,655.7c-25.2-11.5-49.3.2-60.4,14.2-6,7.5-9.6,15.9-8.8,25.7.8,9.8,7.8,16.1,17.7,16.9,8.6.6,15.5-2.9,22-7.9,16-12.4,23.5-29.9,29.6-48.9Z"/> <path d="M1208.9,515.7c7.2-12.7,14.3-25.4,21.8-37.9,6.7-11.2,15.6-20.7,26.2-28.5,8.6-6.4,18.3-9.3,29-8.6,14.4,1,22.9,8.8,23.5,23.4.4,9.6-.7,19.2-1.1,28.8,0,1.3,0,2.5.2,4.7,4.6-2.5,6.3-6.6,8.8-9.9,5.2-6.9,9.9-14.3,15.9-20.4,4.8-4.8,10.9-8.8,17.2-11.5,14.8-6.2,30.3-.5,37.1,14.1,3.5,7.6,5.6,16.4,6.3,24.8,2.1,24.6-4.4,48.1-10.7,71.6-9,33.4-17.7,66.9-19.2,101.7-.6,13.6.4,27.2,1.4,40.8.7,9.2,2.1,18.1-7.7,23.7-8.8,5-23.4,3.4-30.9-3.5-9.7-9.1-11.9-21.1-12.8-33.6-2-29.3,3.2-57.6,10.7-85.7,6.6-24.7,13.4-49.4,19.7-74.2,2.4-9.3,4-18.9,5.5-28.4.7-4.8,1.4-10-2.7-14-5.3-.5-8.2,3.2-10.4,6.6-6.2,9.4-12.7,18.8-17.6,28.9-20.4,42.5-34.1,87.2-41,133.9-1.1,7.5-.6,15.3-.9,22.9-.5,12.9-4.3,18.6-14.2,21.1-11.2,2.7-22.5-1.3-27.1-11.5-3.2-7.1-5.1-15.1-5.8-22.9-1.6-18,1.8-35.7,5.5-53.3,7.8-36.8,20.2-72.3,31.4-108.2,2-6.3,3.6-12.8,4.4-19.4.4-3.2-.5-7.9-2.6-9.8-3.6-3.1-8,0-10.5,2.8-5.6,6.1-10.9,12.6-15.3,19.6-11.9,19-19.7,39.9-26.7,61.1-11.3,34.5-20.8,69.4-25.5,105.5-1.5,11.8-1.8,23.9-2.5,35.8-.2,3,0,6-.1,9-.5,13.9-4.7,20.1-15.3,22.4-12.5,2.7-24.7-2.2-29.9-12.5-6.7-13.2-7.3-27.5-5.9-41.9,3.5-38.1,12.3-75.4,19.2-112.9,5.8-31.3,10.6-62.9,15.9-94.3.4-2.3,1-4.5,1.4-6.8,2.7-18.1,14.2-19.1,27.9-16.6,7.4,1.4,12.2,8.3,12.1,17.4-.1,7.9-1.3,15.9-2.3,23.8-.9,7.2-2.2,14.4-3.3,21.5.4,0,.8.1,1.1.2Z"/> <path d="M1043.3,685c-6.1,8.1-11.1,15.5-16.8,22.2-8.8,10.4-19.3,18.1-33.2,20.7-17.9,3.3-34-4-43.2-19.8-7-12.1-10.2-25.5-10.5-39.2-1.4-64.9,13.1-126,45.8-182.5,6.5-11.2,14.3-21.5,24.4-30.1,17.3-14.5,37.2-20.4,59.4-18,15.4,1.7,27.7,9,35.2,23.2,1.2,2.3,2.4,4.8,3,7.4,3.3,13.7-1.2,19.4-15.2,19.5-1.7,0-3.3-.1-5,0-5.4.6-8-2.2-9.1-7.1-.6-2.6-1.3-5.2-2.3-7.6-3.1-8.2-9.2-10.9-17.5-7.9-8.3,3-13.9,9.4-18.2,16.4-5,8.2-9.7,16.7-13.2,25.7-17.8,45.4-29.5,92.4-34.9,140.9-.9,7.6-.7,15.3-.5,22.9,0,3.9.8,8,2.1,11.7,2.5,7.3,7.8,9,14,4.1,4.3-3.5,8.1-7.9,11.4-12.4,11.5-16.1,19.8-33.9,27.5-51.9,13-30.4,23.5-61.5,29.6-94,1.5-8.1,1.9-16.5,2.5-24.7.6-8.4,1.7-9.9,10-10,7.3-.1,14.7,0,22,0,10.9.2,15,3.3,15.2,14,.2,10.9-.2,22.1-2.5,32.7-5.7,26-12.7,51.6-19.1,77.4-5.1,20.6-11.6,41.1-10.6,62.7.2,5.3,1.2,10.5,2.5,15.7,1.2,5,4.6,8.6,9.2,11.3,10.5,6.1,10.1,19-.6,25.3-17,10-44.4,6.3-54.3-17.9-3-7.3-4-15.4-5.8-23.1-.5-2.1-.6-4.2-1-7.5Z"/> <path d="M1525.9,679.8c-4.8,7-8.5,12.8-12.7,18.4-8.1,10.8-17.7,19.9-30.6,24.8-19.7,7.6-46.5.4-58.3-25-6.9-14.8-9.6-30.7-8.9-46.7,2.5-57.4,17.1-111.6,46.2-161.4,6.1-10.5,14.1-20.3,22.8-28.9,20.6-20.6,45.9-27.4,74.4-21.3,19.3,4.2,31,17.9,31.1,35.1,0,9.8-3.1,13.1-13,13.4-1.3,0-2.7,0-4,0-10,0-11.2-.1-13.5-9.5-4.3-17.1-17.3-17.5-29.2-9.9-4.4,2.8-8.7,6.7-11.1,11.1-6.9,12.5-13.9,25.1-18.9,38.4-12.9,34.3-22.5,69.6-27.8,105.9-1.9,13.1-2,26.5-2.4,39.8-.1,4.2.7,8.6,1.9,12.8,2.4,8.6,8.8,11.5,16,6.4,5.9-4.2,11.5-9.4,15.4-15.3,8-12.2,15.6-24.9,21.7-38.1,13.4-28.7,23.6-58.7,30.6-89.6,2.6-11.3,3.6-23,4.6-34.5.9-10,1.6-11.3,11.9-11.4,7.3-.1,14.7-.2,22,0,9.4.4,12.9,4.1,13.6,13.6,1.2,15.5-1.9,30.5-5.6,45.4-5.4,21.6-11.6,43-17.5,64.5-5.3,19.6-10.7,39.2-9.4,59.8.4,6.6,1.6,13.3,3.8,19.4,1.5,4,4.9,8,8.4,10.5,4,2.9,9.1,3.9,8.4,10.6-.7,7-2.4,13-9.4,16.3-12.1,5.6-24,5.1-35.2-2-10-6.3-16.3-15.7-19.5-26.9-2.2-7.9-3.5-16-5.5-25.8Z"/> <path d="M1680.3,595.9c-1.7,2.2-3.3,4.5-5.2,6.6-22.3,24.8-25.8,53.9-18.8,85,2.3,10.2,7.4,19.4,17.1,24.7,15.8,8.7,35.1,3.1,43.8-13.1,8.5-15.8,9.2-32.7,4.6-49.5-2.9-10.8-7.8-21.2-13.1-31.1-9.4-17.6-19.9-34.6-29.7-51.9-10.2-18-16-37.8-16.4-58.1-.6-34.2,10.3-63.6,43-80.6,16.7-8.7,34.2-8.6,51.3-2.3,12.9,4.7,25.9,19.5,21.2,40.4-4.2,18.8-14.4,32.6-30.2,42.8-2.9,1.8-6.4,2.7-11.2,4.8.9-5.1,1.5-8.3,2-11.4,1.5-8.5,3.2-17,4.2-25.6.5-3.9.2-8-.7-11.8-2.3-9.8-11-13.4-18.8-7.1-4.5,3.6-8.5,8.7-10.9,13.9-8.6,18.8-5,37.1,5,54.3,4.7,8,10.2,15.6,15.7,23.1,13.9,18.8,26.7,38.3,33.1,61.1,9.4,33.5,7.4,66.1-11.1,96.2-16.6,27-41.1,39.8-73.3,40.3-38.2.7-70.4-29.1-69.5-74.8.6-29.3,13.5-52.4,37.7-68.9,8.5-5.8,17.9-9.8,28.5-9.5.5.8,1,1.6,1.6,2.4Z"/> <path class="st1" d="M1625.9,256c17.3,3.9,28-4.6,35.9-18.7,2.1-3.8,5-7.1,7.5-10.6,5.2-7.3,12.3-10.1,20.9-8.4,7.7,1.5,11.8,7.1,14,14.1,2.4,7.6,4.8,15.2,7,22.9,2.2,7.7,7,12.5,14.7,14.9,7.6,2.3,15.2,5,22.7,7.6,5.9,2.1,11,5.6,12.9,11.6,2.8,9.1,2.1,15.8-5.4,21.5-5.3,4-10.9,7.7-16.6,11.1-10.7,6.4-16.2,15.4-15.3,28.1.4,5.6.3,11.3,0,17-.2,3.6-.7,7.3-1.9,10.7-4.5,12.9-15.4,17-27,9.6-7.6-4.8-14.8-10.3-21.6-16.1-6.1-5.1-12.1-5.9-19.4-2.8-6.4,2.7-13.2,4.6-19.8,6.8-2.2.7-4.5,1.1-6.8,1.4-18.8,2.8-24.9-12.2-21.1-24.6,2.3-7.6,4.8-15.2,7.5-22.7,3.1-8.6,2-16.2-3.6-23.4-4.5-5.8-8.6-11.8-12.9-17.8-4.9-6.7-6.4-14.3-2.8-21.7,3.6-7.5,11.1-10.1,19.2-10.4,4-.1,8,0,12,0Z"/> <path class="st1" d="M927.7,362.8c6.7,1.5,10.9-1.8,14-7.3.8-1.5,1.9-2.8,2.9-4.1,2-2.9,4.8-3.9,8.2-3.3,3,.6,4.6,2.8,5.5,5.5.9,3,1.9,6,2.7,9,.9,3,2.7,4.9,5.7,5.8,3,.9,5.9,1.9,8.9,3,2.3.8,4.3,2.2,5.1,4.5,1.1,3.5.8,6.2-2.1,8.4-2.1,1.6-4.3,3-6.5,4.3-4.2,2.5-6.3,6-6,11,.2,2.2.1,4.4,0,6.6,0,1.4-.3,2.9-.7,4.2-1.8,5.1-6,6.6-10.6,3.8-3-1.9-5.8-4-8.5-6.3-2.4-2-4.7-2.3-7.6-1.1-2.5,1.1-5.1,1.8-7.7,2.7-.9.3-1.8.4-2.7.6-7.3,1.1-9.7-4.8-8.2-9.6.9-3,1.9-6,2.9-8.9,1.2-3.3.8-6.3-1.4-9.2-1.8-2.3-3.4-4.6-5-7-1.9-2.6-2.5-5.6-1.1-8.5,1.4-2.9,4.3-4,7.5-4.1,1.6,0,3.1,0,4.7,0Z"/> <path class="st1" d="M1241.2,238.9c4.1.6,6.5-1.5,8.1-5,.4-.9,1-1.7,1.6-2.6,1.1-1.8,2.7-2.6,4.8-2.3,1.8.2,2.9,1.4,3.5,3.1.7,1.7,1.4,3.5,2,5.2.6,1.8,1.9,2.8,3.7,3.2,1.8.4,3.6.9,5.4,1.4,1.4.4,2.7,1.1,3.2,2.5.8,2.1.8,3.7-.9,5.1-1.2,1-2.4,2-3.7,2.9-2.4,1.7-3.5,3.9-3.1,6.8.2,1.3.3,2.6.3,4,0,.8,0,1.7-.3,2.5-.8,3.1-3.3,4.2-6.2,2.7-1.9-1-3.6-2.2-5.3-3.4-1.5-1.1-2.9-1.2-4.6-.3-1.5.7-3,1.3-4.5,1.9-.5.2-1,.3-1.6.4-4.3,1-6-2.4-5.4-5.4.4-1.8.9-3.6,1.4-5.5.6-2.1.2-3.8-1.3-5.4-1.2-1.3-2.2-2.6-3.3-3.9-1.3-1.5-1.7-3.2-1-5,.7-1.8,2.4-2.6,4.3-2.8.9-.1,1.9-.1,2.8-.2Z"/> <path d="M1018.2,284.7c14-19.5,34-20.2,46.2-3.1,2.8-2.3,5.4-4.8,8.4-6.8,14.5-9.8,32.5-4.5,38.7,11.7,2.2,5.8,3.9,12.2,4.1,18.4.6,17.6.2,35.3.4,52.9,0,6.9-2.9,11.4-9.3,13.8-9.6,3.5-17.5-.7-19.2-10.8-1.1-6.8-1.2-13.9-1.4-20.9-.2-10.3.1-20.7-.1-31,0-3.3-1.4-6.5-2.3-10.2-7.9,2-9.2,7.3-9.9,12.5-2.2,14.5-4,29-5.9,43.4-.3,2.3-.4,4.7-.9,6.9-2.1,8.1-6.4,11.2-14.4,10.8-7.6-.4-11.9-4.5-12.7-12.6-.4-4.6-.4-9.3-.4-14,0-11.7,0-23.3-.2-35,0-3.8-1.1-7.5-1.8-11.7-7,.6-8.7,5.2-9.9,9.5-2,7.4-3.6,14.9-4.7,22.4-1.4,9.2-1.9,18.5-3.2,27.7-1.4,10-6.8,14.3-16.2,13.5-6.9-.6-11.2-3.9-12.7-10.6-.9-3.9-1.5-7.9-1.5-11.9-.2-21.3,0-42.6-.4-63.9-.3-12.1,7.2-16.1,18.3-15,7.4.8,9.2,6.7,11.1,13.7Z"/> <path d="M720.9,263.8c0-20,0-40,0-59.9,0-3.3,0-6.7.7-9.9,1.6-8.5,7.6-13.9,15.6-14.4,8-.5,15.3,4.8,17.4,13.4,1,4.1,1.4,8.6,1.3,12.8-.5,26.3-1.3,52.6-1.9,78.9-.2,11.3-.1,22.6,0,33.9,0,3,.2,6,.8,8.9,1.6,8.7,4.8,11.5,13.6,10.9,4.9-.3,9.7-1.9,14.6-2.9,4.5-.9,9.1-2.4,13.7-2.6,7.7-.3,12.2,4.9,9.8,12.1-1.7,5.2-4.7,10.7-8.7,14.1-14.3,12.1-31,16.2-49.4,11.5-12.7-3.3-20.8-11.8-24-24.3-1.9-7.7-3-15.7-3.2-23.6-.4-19.6-.1-39.3-.1-58.9h0Z"/> <path d="M1517.5,283.2c7.3-10.8,16.4-15.6,27.8-15.7,15-.2,27.3,10.7,30.1,26.8,1.1,6.5,1.6,13.2,1.8,19.8.2,13.6.3,27.3-.1,40.9-.4,11.6-6.3,17.2-17.4,17.5-10.4.3-15.6-4-16.2-14.5-.7-11.6-.6-23.3-1-34.9-.2-5.3-.3-10.6-.9-15.9-.3-2.8-1.6-5.4-2.5-8.4-8.1,1.3-10.9,6.8-12.2,12.5-2.2,9.7-3.4,19.6-5,29.4-1.1,6.5-1.5,13.2-3.2,19.6-2.7,10.2-11.7,14.7-21.9,11.7-6.8-2-9.1-7.4-9.7-13.7-.6-6.9-.9-13.9-1-20.9-.3-16-.4-31.9-.5-47.9,0-2,0-4,.1-6,.9-11.8,5.7-15.8,17.4-15.3,4.5.2,7.7,2.1,9.9,5.7,1.5,2.5,2.5,5.2,4.4,9.2Z"/> <path d="M876.4,351.2c-2.1,2.6-3.2,4.1-4.4,5.5-2.9,3.2-5.5,6.7-8.9,9.4-14.6,11.5-34.1,7.4-42-9.3-8.6-18-7.5-36.8-1.8-55.5,1.3-4.1,3.2-8.1,5.6-11.6,11.2-16.5,31.3-27.8,55.8-17.8,1.9-1.3,3.6-2.9,5.7-3.9,7.9-3.8,15.5-.6,18,7.8.9,3.1,1.3,6.5,1.3,9.8.1,23,.1,45.9.1,68.9,0,10.7-3.5,15.3-12,16.1-9.1.9-14.1-3.3-16.2-13.5-.3-1.5-.6-3-1.2-5.9ZM874.2,304.2c-1-2.9-1.3-7.6-3.8-9.4-2.1-1.6-7.2-1-10.1.4-12.3,6-18.7,34.4-10.8,45.6,3.4,4.8,8.6,5.6,12.5.9,3.1-3.7,5.8-8.3,7.2-12.9,2.2-7.6,3.2-15.5,4.9-24.5Z"/> <path d="M1192.6,272c16.7-11.2,23.8-3.5,24.5,14,.6,15.9.2,31.9.1,47.8,0,8,.3,16-.7,23.9-1.2,9.7-6.1,13.4-15.4,13.2-8.2-.1-12.1-3-14.3-11-.6-2.1-.9-4.2-1.7-7.8-2.2,3-3.4,4.9-4.8,6.6-2.4,2.7-4.7,5.7-7.5,7.9-14.2,11-30.8,7.1-37.5-9.6-9.5-23.3-7.5-46.3,5.2-67.9,3.2-5.5,8.3-10.5,13.7-14.1,12.1-8,25.3-9.3,38.6-3ZM1157.7,328.7c.5,2.4.8,6.7,2.4,10.6,2.6,6.4,7.4,7.4,12.4,2.6,2.8-2.7,5.6-6.1,6.5-9.7,2.5-10.2,4.3-20.7,5.6-31.1.7-5.9-3.9-9.4-9.5-7.3-3.2,1.2-6.4,3.5-8.7,6.2-6.5,7.7-7.9,17.2-8.8,28.9Z"/> <path d="M1379,325.2c.7-17.4,5.2-33,17.6-45.6,17.5-17.8,47.9-16.5,64,2.5,18.1,21.3,17.2,61.6-1.7,82.3-12.2,13.3-27.3,17.6-44.4,13.5-17.4-4.2-28.1-15.9-32.5-33.1-1.6-6.4-2-13.1-3-19.6ZM1407.9,325.1c2,7.3,3,14.4,5.9,20.5,5.8,12,19.6,12.4,25.9.6,7.6-14.4,7.3-29.8.4-44.2-5.8-12-19.9-11.7-25.7.4-3.3,7-4.4,15.1-6.4,22.7Z"/> <path d="M1322.3,381.7c-6.8-1.3-13.9-1.9-20.4-3.9-11.4-3.5-18.6-14.7-17.2-25.1.8-5.6,3-10.2,8.8-12.1,6.1-2,11.6-.4,15.7,5.2,3.7,5.1,7.8,8.9,14.7,8.7,4-.2,7.8-1.3,8.7-5.2.6-2.8,0-6.8-1.8-9.1-2.2-3.1-5.9-5.2-9.1-7.6-4.5-3.4-9.4-6.3-13.6-10.1-9.5-8.4-15.4-18.6-12.1-31.8,3.4-13.9,13.7-20.7,27-23.4,8-1.6,15.9-1,23.6,1.7,10.1,3.6,17.2,15,15.9,25.1-.7,5.6-4.6,10.3-9.6,11.6-4.5,1.1-8.6-1.1-12.1-6.6-1.1-1.7-2-3.5-3-5.1-2.1-3.3-5-4-8.6-2.5-3.6,1.5-5.3,4.7-4.2,8,1.1,3.3,3.2,6.6,5.8,8.9,4.8,4.1,10.2,7.5,15.4,11,13.8,9.5,19,21.1,15.5,34.7-3.8,14.9-15.5,24.9-31.3,26.5-2.6.3-5.3,0-8,0,0,.4,0,.7-.1,1.1Z"/> <path d="M1266.8,325.9c0,10.3.3,20.6,0,30.9-.4,11.3-6.1,16.1-17.4,15.6-8.7-.4-14.5-4.5-14.6-13.1-.3-22.2.2-44.5,1.2-66.7.4-8.2,4.8-11.3,13.1-12.4,11-1.4,17.3,3.5,17.7,14.7.4,10.3,0,20.6,0,30.9Z"/> </g> <text class="st0" transform="translate(1628.7 331) scale(.6 1)"><tspan x="0" y="0">des</tspan></text> </svg>